<?xml version="1.0" encoding="utf-8"?>
<!-- Generator: Adobe Illustrator 26.0.3, SVG Export Plug-In . SVG Version: 6.00 Build 0)  -->
<svg version="1.1" id="_x32_" xmlns="http://www.w3.org/2000/svg" xmlns:xlink="http://www.w3.org/1999/xlink" x="0px" y="0px"
	 viewBox="0 0 512 512" style="enable-background:new 0 0 512 512;" xml:space="preserve">
<style type="text/css">
	.st0{fill:#A5A5A5;}
</style>
<g>
	<path class="st0" d="M256,0C114.6,0,0,114.6,0,256c0,141.4,114.6,256,256,256c141.4,0,256-114.6,256-256C512,114.6,397.4,0,256,0z
		 M187.1,203.1c0,0.4-0.2,0.7-0.4,0.9l-72.1,53.6l72.1,53.6c0.3,0.2,0.4,0.5,0.4,0.9v33.1c0,0.4-0.2,0.8-0.5,1
		c-0.1,0.1-0.3,0.1-0.5,0.1c-0.2,0-0.4-0.1-0.6-0.2L81.7,268.9c-0.3-0.2-0.4-0.5-0.4-0.9v-20.8c0-0.4,0.2-0.7,0.4-0.9l103.8-77.2
		c0.2-0.1,0.4-0.2,0.6-0.2c0.2,0,0.3,0,0.5,0.1c0.3,0.2,0.5,0.6,0.5,1V203.1z M238.5,360.4c-0.1,0.4-0.5,0.7-1,0.7h-29
		c-0.3,0-0.6-0.2-0.8-0.5c-0.2-0.3-0.2-0.6-0.1-1l65.9-208.1c0.1-0.4,0.5-0.7,0.9-0.7h29c0.3,0,0.6,0.2,0.8,0.5s0.2,0.7,0.1,1
		L238.5,360.4z M430.7,268c0,0.4-0.2,0.7-0.4,0.9l-103.8,77.2c-0.2,0.1-0.4,0.2-0.6,0.2c-0.2,0-0.3-0.1-0.5-0.1
		c-0.3-0.2-0.5-0.6-0.5-1v-33.1c0-0.4,0.2-0.7,0.4-0.9l72.1-53.6L325.4,204c-0.3-0.2-0.4-0.5-0.4-0.9v-33.1c0-0.4,0.2-0.8,0.5-1
		c0.1-0.1,0.3-0.1,0.5-0.1c0.2,0,0.4,0.1,0.6,0.2l103.8,77.2c0.3,0.2,0.4,0.5,0.4,0.9V268z"/>
</g>
</svg>
