<?xml version="1.0" encoding="utf-8"?>
<!-- Generator: Adobe Illustrator 26.0.3, SVG Export Plug-In . SVG Version: 6.00 Build 0)  -->
<svg version="1.1" id="_x32_" xmlns="http://www.w3.org/2000/svg" xmlns:xlink="http://www.w3.org/1999/xlink" x="0px" y="0px"
	 viewBox="0 0 512 512" style="enable-background:new 0 0 512 512;" xml:space="preserve">
<style type="text/css">
	.st0{fill:#A5A5A5;}
</style>
<g>
	<path class="st0" d="M188.2,77.5h135.6c9.5,0,17.2-7.7,17.2-17.2V17.2C341,7.7,333.3,0,323.8,0H188.2C178.7,0,171,7.7,171,17.2
		v43.1C171,69.8,178.7,77.5,188.2,77.5z"/>
	<path class="st0" d="M279.8,462.3v-24c9.2-27.5,79.8-145.8,103.1-172c-24.6-63.4-45.5-120.4-51.1-172.8H256h-75.8
		c-5.6,52.4-26.5,109.4-51.1,172.8c23.3,26.2,93.9,144.5,103.1,172v24c-6.4,5.1-10.5,13-10.5,21.8c0,15.4,12.5,27.9,27.9,27.9v-49.4
		v-6.4V261.3c-10.5-2.9-18.2-12.5-18.2-23.8c0-13.7,11.1-24.7,24.7-24.7c13.7,0,24.7,11.1,24.7,24.7c0,11.4-7.7,21-18.2,23.8v194.9
		v6.4V512c15.4,0,27.9-12.5,27.9-27.9C290.4,475.2,286.3,467.4,279.8,462.3z"/>
</g>
</svg>
