<?xml version="1.0" encoding="utf-8"?>
<!-- Generator: Adobe Illustrator 26.0.3, SVG Export Plug-In . SVG Version: 6.00 Build 0)  -->
<svg version="1.1" id="_x32_" xmlns="http://www.w3.org/2000/svg" xmlns:xlink="http://www.w3.org/1999/xlink" x="0px" y="0px"
	 viewBox="0 0 512 512" style="enable-background:new 0 0 512 512;" xml:space="preserve">
<style type="text/css">
	.st0{fill:#FFFFFF;}
</style>
<g>
	<path class="st0" d="M165,288.9h75c7,0,12.6,5.7,12.6,12.6V328c0,7.1,3.7,9.6,7.1,9.6c2.1,0,4.5-0.9,6.8-2.7l91-69
		c3.4-2.6,5.3-6.1,5.3-9.8c0-3.8-1.9-7.3-5.3-9.8l-91-69c-2.3-1.8-4.7-2.7-6.8-2.7c-3.4,0-7.1,2.5-7.1,9.6v26.4
		c0,7-5.7,12.6-12.6,12.6h-75c-8.7,0-15.8,7.1-15.8,15.8v34.3C149.2,281.9,156.3,288.9,165,288.9z"/>
	<path class="st0" d="M256,0C114.8,0,0,114.8,0,256s114.8,256,256,256s256-114.8,256-256S397.2,0,256,0z M256,66.8
		c104.3,0,189.2,84.9,189.2,189.2S360.3,445.2,256,445.2S66.8,360.3,66.8,256S151.7,66.8,256,66.8z"/>
</g>
</svg>
