<svg id="レイヤー_1" data-name="レイヤー 1" xmlns="http://www.w3.org/2000/svg" viewBox="0 0 24 24"><defs><style>.cls-1{fill:#444;}</style></defs><path class="cls-1" d="M14.8,6.3H9.2A2.68,2.68,0,0,0,6.3,9.2v5.6a2.68,2.68,0,0,0,2.9,2.9h5.6a2.68,2.68,0,0,0,2.9-2.9V9.2A2.68,2.68,0,0,0,14.8,6.3ZM12,15.6A3.6,3.6,0,1,1,15.6,12,3.59,3.59,0,0,1,12,15.6Zm3.7-6.5a.79.79,0,0,1-.8-.8.86.86,0,0,1,.8-.8.79.79,0,0,1,.8.8C16.6,8.7,16.2,9.1,15.7,9.1ZM14.3,12A2.3,2.3,0,1,1,12,9.7,2.26,2.26,0,0,1,14.3,12ZM12,0A12,12,0,1,0,24,12,12,12,0,0,0,12,0Zm7,14.9A3.88,3.88,0,0,1,14.9,19H9.1A3.88,3.88,0,0,1,5,14.9V9.1A3.88,3.88,0,0,1,9.1,5h5.8A3.88,3.88,0,0,1,19,9.1v5.8Z"/></svg>