<svg id="レイヤー_1" data-name="レイヤー 1" xmlns="http://www.w3.org/2000/svg" viewBox="0 0 24 24"><defs><style>.cls-1{fill:#444;}</style></defs><path class="cls-1" d="M12,0A12,12,0,1,0,24,12,12,12,0,0,0,12,0Zm6.1,9.6a8.09,8.09,0,0,1-8.2,8.5,8.39,8.39,0,0,1-4.4-1.3,5.72,5.72,0,0,0,4.3-1.2,2.92,2.92,0,0,1-2.7-2,2.85,2.85,0,0,0,1.3,0,2.7,2.7,0,0,1-2.3-2.8,5,5,0,0,0,1.3.4,2.88,2.88,0,0,1-.9-3.8,8.12,8.12,0,0,0,5.9,3,2.84,2.84,0,0,1,2.8-3.5,2.72,2.72,0,0,1,2.1.9,4.84,4.84,0,0,0,1.8-.7,2.93,2.93,0,0,1-1.3,1.6,4.28,4.28,0,0,0,1.6-.5A5.71,5.71,0,0,1,18.1,9.6Z"/></svg>