<?xml version="1.0" encoding="utf-8"?>
<!-- Generator: Adobe Illustrator 26.0.3, SVG Export Plug-In . SVG Version: 6.00 Build 0)  -->
<svg version="1.1" id="_x32_" xmlns="http://www.w3.org/2000/svg" xmlns:xlink="http://www.w3.org/1999/xlink" x="0px" y="0px"
	 viewBox="0 0 512 512" style="enable-background:new 0 0 512 512;" xml:space="preserve">
<style type="text/css">
	.st0{fill:#A5A5A5;}
</style>
<g>
	<path class="st0" d="M256,224.8c-34.3,0-62.2,28.1-62.2,62.7s27.8,62.7,62.2,62.7s62.2-28.1,62.2-62.7S290.3,224.8,256,224.8z"/>
	<path class="st0" d="M478.8,135.8h-58.6c-13.1,0-24.9-7.8-30.3-19.8l-17.5-39.3c-5.4-12-17.2-19.8-30.3-19.8H170
		c-13.1,0-25,7.8-30.3,19.8L122.2,116c-5.4,12-17.2,19.8-30.3,19.8H33.2c-18.4,0-33.2,15-33.2,33.5v252.3
		c0,18.5,14.9,33.5,33.2,33.5h244.2h201.3c18.3,0,33.2-15,33.2-33.5V169.3C512,150.8,497.1,135.8,478.8,135.8z M256,403.8
		c-63.7,0-115.3-52.1-115.3-116.3S192.3,171.2,256,171.2s115.3,52.1,115.3,116.3S319.7,403.8,256,403.8z"/>
</g>
</svg>
